<?xml version="1.0" encoding="UTF-8" standalone="no"?>
<svg
   xmlns:osb="http://www.openswatchbook.org/uri/2009/osb"
   xmlns:dc="http://purl.org/dc/elements/1.1/"
   xmlns:cc="http://creativecommons.org/ns#"
   xmlns:rdf="http://www.w3.org/1999/02/22-rdf-syntax-ns#"
   xmlns:svg="http://www.w3.org/2000/svg"
   xmlns="http://www.w3.org/2000/svg"
   xmlns:sodipodi="http://sodipodi.sourceforge.net/DTD/sodipodi-0.dtd"
   xmlns:inkscape="http://www.inkscape.org/namespaces/inkscape"
   t="1548057274343"
   class="icon"
   style=""
   viewBox="0 0 1024 1024"
   version="1.1"
   p-id="3097"
   width="200"
   height="200"
   id="svg8"
   sodipodi:docname="fan-fast-symbolic.svg"
   inkscape:version="0.92.4 5da689c313, 2019-01-14">
  <metadata
     id="metadata12">
    <rdf:RDF>
      <cc:Work
         rdf:about="">
        <dc:format>image/svg+xml</dc:format>
        <dc:type
           rdf:resource="http://purl.org/dc/dcmitype/StillImage" />
        <dc:title></dc:title>
      </cc:Work>
    </rdf:RDF>
  </metadata>
  <sodipodi:namedview
     pagecolor="#ffffff"
     bordercolor="#666666"
     borderopacity="1"
     objecttolerance="10"
     gridtolerance="10"
     guidetolerance="10"
     inkscape:pageopacity="0"
     inkscape:pageshadow="2"
     inkscape:window-width="1557"
     inkscape:window-height="916"
     id="namedview10"
     showgrid="false"
     inkscape:zoom="1.18"
     inkscape:cx="37.288136"
     inkscape:cy="100"
     inkscape:window-x="0"
     inkscape:window-y="1080"
     inkscape:window-maximized="0"
     inkscape:current-layer="svg8" />
  <defs
     id="defs4">
    <linearGradient
       id="linearGradient1518"
       osb:paint="solid">
      <stop
         style="stop-color:#000000;stop-opacity:1;"
         offset="0"
         id="stop1516" />
    </linearGradient>
    <style
       type="text/css"
       id="style2" />
  </defs>
  <path
     class="error"
     d="m 511.23318,460.87673 a 51.123318,51.123318 0 0 0 -51.12363,51.12318 51.123318,51.123318 0 0 0 51.12363,51.12363 51.123318,51.123318 0 0 0 51.12318,-51.12363 51.123318,51.123318 0 0 0 -51.12318,-51.12318 M 536.79468,0.766909 c 230.05477,0 235.6786,182.510161 115.0273,242.835531 -50.6116,25.05063 -73.10607,78.73018 -82.81971,126.27472 24.53912,10.22459 46.01118,26.07303 62.37073,46.52224 C 820.52898,314.15285 1024,354.54008 1024,537.5616 c 0,230.05499 -182.51055,235.16733 -242.83594,114.00508 -25.56164,-50.61234 -79.75218,-73.1065 -127.29702,-82.8198 -10.22477,24.53931 -26.07279,45.49978 -46.52227,62.88176 101.73547,188.64486 61.34824,391.60446 -121.67328,391.60446 -230.05499,0 -234.65595,-183.02126 -114.00508,-243.34688 50.10073,-25.05051 72.59492,-78.21872 82.81981,-125.25233 -25.05035,-10.2245 -47.03329,-26.58388 -63.39283,-47.03347 C 202.44822,708.82479 0,668.94867 0,486.43841 0,256.38367 181.99911,250.7598 242.32442,371.92199 c 25.56176,50.61207 79.24117,72.59519 126.78614,82.30883 9.71315,-24.53912 26.07252,-46.01118 47.03317,-62.37073 C 314.40831,203.21498 354.79585,0.766909 536.79468,0.766909 Z"
     p-id="3098"
     id="path6"
     style="fill:#e74c3c;fill-opacity:1;fill-rule:nonzero;stroke:none;stroke-width:1.19820416;stroke-opacity:1"
     inkscape:connector-curvature="0" />
</svg>
