<?xml version="1.0" encoding="UTF-8" standalone="no"?>
<svg
   version="1.1"
   viewBox="-9.061480784023479 -8.711829305257275 17.42365861051455 17.42365861051455"
   height="17.42365861051455"
   width="17.42365861051455"
   id="svg18"
   sodipodi:docname="syncthing-symbolic.svg"
   inkscape:version="1.2 (dc2aedaf03, 2022-05-15)"
   xmlns:inkscape="http://www.inkscape.org/namespaces/inkscape"
   xmlns:sodipodi="http://sodipodi.sourceforge.net/DTD/sodipodi-0.dtd"
   xmlns="http://www.w3.org/2000/svg"
   xmlns:svg="http://www.w3.org/2000/svg">
  <defs
     id="defs22" />
  <sodipodi:namedview
     id="namedview20"
     pagecolor="#ffffff"
     bordercolor="#666666"
     borderopacity="1.0"
     inkscape:showpageshadow="2"
     inkscape:pageopacity="0.0"
     inkscape:pagecheckerboard="0"
     inkscape:deskcolor="#d1d1d1"
     showgrid="false"
     inkscape:zoom="42.987528"
     inkscape:cx="8.7118292"
     inkscape:cy="8.7350917"
     inkscape:window-width="1920"
     inkscape:window-height="1131"
     inkscape:window-x="0"
     inkscape:window-y="0"
     inkscape:window-maximized="1"
     inkscape:current-layer="svg18" />
  <path
     id="circle2"
     style="color:#000000;fill:#bebebe;-inkscape-stroke:none"
     d="M -0.00093390902 -7.7508918 C -4.2722487 -7.7508918 -7.7509339 -4.2722066 -7.7509339 -0.00089180526 C -7.7509339 0.10249546 -7.7452064 0.20528156 -7.7411683 0.30770194 A 1.8 1.8 0 0 0 -8.5614808 1.8116082 A 1.8 1.8 0 0 0 -6.8564027 3.6065301 C -5.5559473 6.0675187 -2.9710664 7.7491082 -0.00093390902 7.7491082 C 1.2769142 7.7491082 2.4838548 7.4366052 3.5478942 6.8858269 A 1.8 1.8 0 0 0 6.2998473 5.3623894 A 1.8 1.8 0 0 0 6.1650817 4.6885613 C 7.158556 3.3855887 7.7490661 1.7592343 7.7490661 -0.00089180526 C 7.7490661 -0.80176334 7.6282985 -1.5742397 7.4014098 -2.3016731 A 1.8 1.8 0 0 0 7.8623473 -3.5008918 A 1.8 1.8 0 0 0 5.684613 -5.2587043 C 4.2676672 -6.7893059 2.2429 -7.7508918 -0.00093390902 -7.7508918 z M -0.00093390902 -6.2508918 C 1.7617823 -6.2508918 3.3509198 -5.5257824 4.4853942 -4.3583137 A 1.8 1.8 0 0 0 4.262738 -3.5008918 A 1.8 1.8 0 0 0 4.4600036 -2.6844856 L 2.4775817 -0.59268868 A 1.8 1.8 0 0 0 0.010784841 0.60262382 L -5.127887 1.0635613 A 1.8 1.8 0 0 0 -6.2489808 0.092858195 C -6.2494345 0.061707073 -6.2509339 0.030370445 -6.2509339 -0.00089180526 C -6.2509339 -3.461548 -3.4615901 -6.2508918 -0.00093390902 -6.2508918 z M 5.3330505 -1.8602668 A 1.8 1.8 0 0 0 6.0146911 -1.7059699 C 6.1672831 -1.163956 6.2490661 -0.5927775 6.2490661 -0.00089180526 C 6.2490661 1.3680495 5.8112156 2.631518 5.0693786 3.6592644 A 1.8 1.8 0 0 0 4.0928161 3.6084832 L 3.1650817 2.1534051 A 1.8 1.8 0 0 0 3.5498473 1.0498894 A 1.8 1.8 0 0 0 3.3506286 0.23153007 L 5.3330505 -1.8602668 z M 0.11625359 1.7998894 A 1.8 1.8 0 0 0 2.1572692 2.8037957 L 3.0850036 4.2588738 A 1.8 1.8 0 0 0 2.700238 5.3623894 A 1.8 1.8 0 0 0 2.7197692 5.6319207 C 1.8981971 6.0279855 0.97487219 6.2491082 -0.00093390902 6.2491082 C -2.3519271 6.2491082 -4.3906812 4.962423 -5.4579652 3.0518426 A 1.8 1.8 0 0 0 -5.0224183 2.2588738 L 0.11625359 1.7998894 z " />
</svg>
